<?xml version="1.0" encoding="UTF-8" standalone="no"?>
<!-- Created with Inkscape (http://www.inkscape.org/) -->

<svg
   width="140.14484mm"
   height="78.789001mm"
   viewBox="0 0 140.14484 78.789001"
   version="1.1"
   id="svg5"
   xml:space="preserve"
   inkscape:version="1.2.2 (b0a8486541, 2022-12-01)"
   sodipodi:docname="workspace_logo.svg"
   xmlns:inkscape="http://www.inkscape.org/namespaces/inkscape"
   xmlns:sodipodi="http://sodipodi.sourceforge.net/DTD/sodipodi-0.dtd"
   xmlns="http://www.w3.org/2000/svg"
   xmlns:svg="http://www.w3.org/2000/svg"><sodipodi:namedview
     id="namedview7"
     pagecolor="#ffffff"
     bordercolor="#000000"
     borderopacity="0.25"
     inkscape:showpageshadow="2"
     inkscape:pageopacity="0.0"
     inkscape:pagecheckerboard="0"
     inkscape:deskcolor="#d1d1d1"
     inkscape:document-units="mm"
     showgrid="false"
     inkscape:zoom="0.3199735"
     inkscape:cx="840.69463"
     inkscape:cy="656.30436"
     inkscape:window-width="1024"
     inkscape:window-height="717"
     inkscape:window-x="0"
     inkscape:window-y="27"
     inkscape:window-maximized="1"
     inkscape:current-layer="layer1" /><defs
     id="defs2" /><g
     inkscape:label="Layer 1"
     inkscape:groupmode="layer"
     id="layer1"
     transform="translate(-383.12129,-93.379178)"><path
       style="fill:#000000;stroke-width:0.264583"
       d="m 458.73396,170.02498 c -6.61077,-5.0632 -7.17276,-5.65709 -6.78296,-7.16804 0.15155,-0.58744 0.47884,-0.82128 3.34337,-2.38876 0.80037,-0.43797 1.57427,-0.88335 1.71979,-0.98974 0.14552,-0.10639 1.93146,-1.11851 3.96875,-2.24917 2.0373,-1.13066 4.51155,-2.57428 5.49836,-3.20805 0.9868,-0.63376 1.90832,-1.1523 2.04781,-1.1523 0.1395,0 1.11805,0.55664 2.17456,1.23698 l 1.92094,1.23699 6.61458,-0.82235 6.61459,-0.82235 4.49791,2.40962 c 5.35797,2.87037 6.84039,3.67861 6.99382,3.81314 0.0631,0.0553 -0.0262,0.24143 -0.19843,0.41363 -0.40449,0.40449 -0.40449,1.8621 0,2.26659 0.1722,0.1722 0.26149,0.35847 0.19843,0.41393 -0.0631,0.0555 -1.60293,0.35978 -3.42194,0.67627 -1.81901,0.31649 -6.00579,1.05852 -9.30396,1.64895 l -5.99667,1.07353 -1.73009,-0.96753 c -1.40226,-0.78419 -1.8294,-0.91437 -2.25417,-0.68705 -0.69927,0.37424 -0.94697,0.35434 -0.62524,-0.0503 0.14465,-0.1819 0.22921,-0.53965 0.18792,-0.79501 -0.0413,-0.25535 0.0357,-0.39581 0.17109,-0.31213 0.3341,0.20648 2.1298,-0.92727 1.94423,-1.22753 -0.0812,-0.13143 0.0371,-0.16805 0.26294,-0.0814 0.24244,0.093 0.42137,0.0105 0.43686,-0.20146 0.0145,-0.19748 0.0556,-0.68646 0.0914,-1.08665 0.0734,-0.81948 0.0493,-0.8356 -0.67165,-0.44974 -0.28555,0.15282 -0.45437,0.38272 -0.37516,0.51088 0.0792,0.12817 0.005,0.31918 -0.16576,0.42448 -0.20766,0.12834 -0.23838,0.0759 -0.0932,-0.15897 0.35659,-0.57697 -0.31715,-0.21353 -5.19943,2.80479 -6.14919,3.80154 -7.38414,4.63657 -7.22885,4.88784 0.0722,0.11681 -0.008,0.29854 -0.17851,0.40384 -0.17345,0.1072 -0.23944,0.0776 -0.14995,-0.0672 0.0909,-0.14706 -0.20531,-0.26385 -0.68672,-0.27077 -1.03383,-0.0149 -1.64031,-0.16523 -1.64031,-0.40669 0,-0.31367 -1.04112,-0.95788 -1.29473,-0.80113 -0.13323,0.0823 -0.16499,0.0247 -0.0706,-0.12803 0.14672,-0.2374 -0.36693,-0.63226 -0.91996,-0.70721 -0.0927,-0.0126 -0.42923,-0.32051 -0.74776,-0.68431 -0.31853,-0.36381 -0.48413,-0.48287 -0.368,-0.26459 0.2737,0.51443 0.37097,1.15917 0.14004,0.92824 -0.0982,-0.0982 -0.17945,-0.25796 -0.18051,-0.35497 -0.003,-0.29366 -0.92344,-1.50441 -0.93292,-1.22745 -0.005,0.14152 -0.24296,-0.0238 -0.52916,-0.36731 -0.2862,-0.34355 -0.52465,-0.52214 -0.52988,-0.39688 -0.005,0.12526 -0.31596,-0.12944 -0.6905,-0.566 -0.37454,-0.43656 -0.59531,-0.61516 -0.49061,-0.39688 0.1047,0.21828 -0.11119,0.0397 -0.47976,-0.39687 -0.5442,-0.64461 -0.70083,-0.71532 -0.83358,-0.37636 -0.16489,0.42102 0.24224,1.83157 0.52865,1.83157 0.0849,0 0.0748,-0.14883 -0.0225,-0.33073 -0.0973,-0.1819 0.1424,0.0265 0.5327,0.46302 0.39029,0.43656 0.62842,0.61515 0.52916,0.39687 -0.0993,-0.21828 0.11892,-0.0397 0.48485,0.39675 0.36592,0.43649 0.61092,0.88161 0.54446,0.98915 -0.0665,0.10755 0.0519,0.12926 0.263,0.0482 0.21112,-0.081 0.46366,-0.0182 0.56119,0.13964 0.0975,0.15782 0.27244,0.22816 0.38868,0.15632 0.11624,-0.0718 0.19731,0.11846 0.18015,0.42288 -0.0198,0.35106 0.30751,0.7968 0.89486,1.21874 l 0.92604,0.66525 -0.92604,-0.82074 c -0.50932,-0.45141 -0.77721,-0.82394 -0.59531,-0.82786 0.1819,-0.004 0.42003,-0.007 0.52917,-0.007 0.10914,0 0.19843,0.14883 0.19843,0.33073 0,0.1819 0.1786,0.33073 0.39688,0.33073 0.21828,0 0.36416,-0.15768 0.32417,-0.35039 -0.04,-0.19272 0.0551,-0.27142 0.21129,-0.17489 0.20042,0.12387 0.20139,0.27504 0.003,0.51373 -0.32613,0.39297 0.23746,1.00544 0.81044,0.88073 0.1906,-0.0415 0.35196,0.0777 0.35858,0.26495 0.0138,0.39165 0.68697,0.87314 0.9733,0.69618 0.10603,-0.0655 0.27894,0.0202 0.38424,0.19063 0.11957,0.19347 0.0768,0.2389 -0.11401,0.12099 -0.61084,-0.37751 -0.28714,0.0582 0.35659,0.47996 0.60444,0.39605 0.73181,0.39772 1.46386,0.0192 0.44099,-0.22805 0.73966,-0.51518 0.66371,-0.63807 -0.076,-0.1229 0.069,-0.20712 0.32208,-0.18717 0.25451,0.0201 0.42768,-0.12033 0.38747,-0.31413 -0.04,-0.19271 0.0469,-0.2765 0.19297,-0.1862 0.34013,0.21021 1.39436,-0.34383 1.2129,-0.63743 -0.0753,-0.12179 0.0702,-0.20511 0.32332,-0.18516 0.25451,0.0201 0.42769,-0.12033 0.38747,-0.31412 -0.04,-0.19272 0.0469,-0.27651 0.19298,-0.18621 0.34013,0.21022 1.39436,-0.34382 1.2129,-0.63742 -0.0753,-0.12179 0.0702,-0.20512 0.32332,-0.18517 0.25451,0.0201 0.42768,-0.12033 0.38747,-0.31412 -0.04,-0.19272 0.0469,-0.27651 0.19297,-0.1862 0.34013,0.21021 1.39436,-0.34383 1.21291,-0.63743 -0.0753,-0.12179 0.0702,-0.20511 0.32332,-0.18516 0.25451,0.0201 0.42768,-0.12033 0.38747,-0.31413 -0.04,-0.19271 0.0469,-0.2765 0.19297,-0.1862 0.34013,0.21021 1.39436,-0.34383 1.2129,-0.63743 -0.0753,-0.12179 0.0702,-0.20511 0.32332,-0.18516 0.2531,0.0199 0.44038,-0.0828 0.41619,-0.22831 -0.0242,-0.14552 0.24805,-0.28202 0.60498,-0.30334 0.48813,-0.0292 0.58157,0.0424 0.37701,0.28893 -0.14957,0.18022 -0.20858,0.39106 -0.13112,0.46851 0.24131,0.24131 -10.9953,7.0874 -11.60601,7.07115 -0.31788,-0.008 -1.82811,-0.97287 -3.35608,-2.14315 z m 3.175,1.79404 c 0,-0.0549 -0.20836,-0.2633 -0.46303,-0.46302 -0.41964,-0.32911 -0.429,-0.31975 -0.0999,0.0999 0.34564,0.44073 0.56292,0.58088 0.56292,0.36312 z m 2.48711,-4.17838 c 1.1787,-0.75232 2.917,-1.86621 3.86289,-2.47531 0.94588,-0.60909 3.42537,-2.15326 5.50996,-3.43147 3.2683,-2.00403 3.73861,-2.37559 3.4157,-2.69851 -0.20597,-0.20596 -2.2092,-1.61178 -4.45163,-3.12403 -3.67102,-2.47567 -4.12987,-2.71531 -4.60633,-2.40573 -0.79355,0.51561 -8.16163,4.81707 -8.46666,4.94281 -0.66994,0.27615 -6.24607,3.51277 -6.3547,3.68853 -0.0673,0.10896 0.29535,0.51678 0.80598,0.90625 0.51063,0.38948 0.86472,0.81122 0.78686,0.9372 -0.0779,0.12598 -0.002,0.31521 0.16821,0.42051 0.19347,0.11957 0.2389,0.0768 0.121,-0.11401 -0.40132,-0.64934 0.2765,-0.21872 3.47565,2.20808 1.82242,1.38245 3.3757,2.51354 3.45173,2.51354 0.076,0 1.10263,-0.61554 2.28134,-1.36786 z m 2.50307,-5.4546 c -0.67513,-0.54051 -2.01459,-1.54541 -2.97656,-2.2331 -0.96197,-0.68769 -1.74904,-1.34714 -1.74904,-1.46545 0,-0.1183 0.68461,-0.61932 1.52135,-1.11337 0.83675,-0.49405 2.17855,-1.29311 2.98178,-1.7757 0.80324,-0.48258 1.57222,-0.87742 1.70885,-0.87742 0.47547,0 6.47792,4.1033 6.48295,4.43177 0.003,0.1819 -0.0865,0.33073 -0.19839,0.33073 -0.1119,0 -1.55131,0.83344 -3.19869,1.85208 -1.64738,1.01865 -3.07388,1.84784 -3.16998,1.84264 -0.0961,-0.005 -0.72713,-0.45167 -1.40227,-0.99218 z m 4.56284,-1.26422 c 1.58531,-0.95517 2.88239,-1.78706 2.88239,-1.84864 0,-0.0616 -1.33033,-1.00091 -2.95629,-2.08742 l -2.9563,-1.97545 -1.0786,0.65676 c -0.59323,0.36122 -1.8814,1.0998 -2.86261,1.64129 -0.98121,0.54148 -1.75256,1.08146 -1.71413,1.19994 0.0858,0.26458 5.26138,4.09475 5.57669,4.12702 0.12455,0.0128 1.52353,-0.75833 3.10885,-1.7135 z m 16.24385,3.05998 c 4.2201,-0.72759 7.92096,-1.37979 8.22413,-1.44936 0.56118,-0.12875 0.78729,-0.92894 0.26459,-0.93632 -0.18589,-0.003 -0.19363,-0.0724 -0.022,-0.19844 0.37227,-0.27351 0.45245,-0.85585 0.11784,-0.85585 -0.15347,0 -3.99992,0.65659 -8.54767,1.45909 -7.58798,1.33897 -10.37453,1.64853 -10.04684,1.11611 0.0687,-0.11161 -0.29499,-0.003 -0.8082,0.24204 -0.5132,0.24473 -0.87048,0.54629 -0.79394,0.67012 0.32143,0.5201 2.65269,1.51476 3.27776,1.39851 0.36381,-0.0677 4.11427,-0.71832 8.33438,-1.4459 z m -1.04801,-2.09325 c 4.06891,-0.71451 7.96356,-1.38287 8.65478,-1.48525 0.69123,-0.10237 1.25677,-0.27394 1.25677,-0.38126 0,-0.10732 -2.42566,-1.49786 -5.39036,-3.09008 l -5.39036,-2.89494 -3.53932,0.44026 c -1.94664,0.24214 -4.75856,0.58788 -6.24873,0.76831 -1.49854,0.18145 -2.64227,0.43665 -2.55921,0.57106 0.0826,0.13365 0.94464,0.7753 1.91565,1.4259 2.86283,1.91815 2.85811,1.91339 2.48646,2.50851 -0.38957,0.6238 -0.43154,2.11369 -0.0595,2.11369 0.14552,0 0.26458,0.21828 0.26458,0.48507 0,0.59841 0.22348,0.83785 0.78202,0.83785 0.23609,0 3.75835,-0.58461 7.82726,-1.29912 z m -1.93548,-4.16807 c -1.4954,-0.963 -2.67203,-1.79778 -2.61473,-1.85508 0.0573,-0.0573 0.84682,-0.22378 1.75449,-0.36996 l 1.6503,-0.26577 3.05659,1.77494 c 3.35796,1.94995 3.37084,2.01458 0.45976,2.30719 l -1.5875,0.15956 z m 5.74131,1.07252 c 0.21192,-0.0686 -0.79437,-0.79832 -2.30152,-1.66907 -2.44773,-1.41416 -2.78166,-1.53557 -3.88229,-1.41151 -0.66232,0.0747 -1.20422,0.22791 -1.20422,0.34057 0,0.11266 1.0418,0.86992 2.31511,1.6828 2.14931,1.37213 2.40036,1.46727 3.50573,1.32851 0.65484,-0.0822 1.36008,-0.20429 1.56719,-0.2713 z m -28.67648,11.55541 c -0.10585,-0.17126 0.002,-0.20959 0.28374,-0.10129 0.29491,0.11317 0.39094,0.0722 0.27401,-0.11704 -0.099,-0.1602 -0.0695,-0.35959 0.0657,-0.4431 0.13512,-0.0835 0.21596,0.0506 0.17963,0.29811 -0.0784,0.53422 -0.56215,0.75309 -0.80304,0.36332 z m 2.60342,-1.4403 c 0.0334,-0.2274 0.13458,-0.48735 0.22488,-0.57766 0.0903,-0.0903 0.13689,0.0219 0.10351,0.24927 -0.0334,0.22741 -0.13457,0.48735 -0.22487,0.57766 -0.0903,0.0903 -0.13689,-0.0219 -0.10352,-0.24927 z m -41.70386,-5.9362 c -0.14131,-0.54037 -1.94249,-0.84258 -5.02196,-0.84258 h -1.56864 l 1.73974,-3.27946 c 0.95686,-1.80371 1.73975,-3.36186 1.73975,-3.46258 0,-0.10071 -1.85906,0.78585 -4.13125,1.97013 -2.27219,1.18429 -4.27066,2.11737 -4.44106,2.07352 -0.78582,-0.20223 -11.53604,-6.19204 -11.53617,-6.42772 -7e-5,-0.14663 -1.25559,-0.55453 -2.79004,-0.90646 -1.53444,-0.35192 -2.85615,-0.74705 -2.93712,-0.87807 -0.081,-0.13101 1.39245,-1.76006 3.27426,-3.62011 3.41138,-3.37192 3.42008,-3.38364 2.94466,-3.97075 -0.57599,-0.71132 -0.79165,-0.65962 -4.05021,0.97088 -5.44435,2.72421 -9.47163,6.19958 -11.51492,9.93688 -0.62051,1.13496 -1.18952,2.00224 -1.26446,1.92729 -0.075,-0.0749 0.38487,-1.06307 1.02181,-2.19584 2.24459,-3.99191 6.53939,-7.56512 12.53559,-10.42944 l 2.78058,-1.32825 v -2.76376 c 0,-3.42177 0.87002,-12.05592 1.60144,-15.89283 0.80552,-4.22561 1.4883,-6.3225 2.39495,-7.35511 0.8461,-0.96366 3.27705,-2.46131 6.40272,-3.94457 1.17129,-0.55582 2.42654,-1.42499 3.25629,-2.25474 0.7436,-0.7436 1.59335,-1.35026 1.89133,-1.35026 0.36902,0 0.63345,-0.26496 0.83155,-0.83323 0.36924,-1.05921 0.38188,-2.42949 0.0204,-2.20605 -0.33382,0.2063 -1.0528,-1.44881 -1.0528,-2.42354 0,-0.39452 -0.14085,-1.10683 -0.313,-1.58289 -0.24026,-0.66445 -0.2407,-1.09918 -0.002,-1.87087 0.25944,-0.838355 0.24552,-1.054065 -0.0839,-1.299035 -0.55058,-0.40948 -0.49748,-0.5492 0.28319,-0.74514 0.373,-0.0936 1.11714,-0.64969 1.65365,-1.23571 0.53651,-0.58603 1.34671,-1.29625 1.80045,-1.57827 0.84597,-0.52583 2.74686,-0.70908 2.74686,-0.26481 0,0.13637 -0.39354,0.18409 -0.87453,0.10603 -0.94132,-0.15275 -1.87139,0.448 -3.44581,2.22571 -0.41886,0.47294 -0.9208,0.8599 -1.11542,0.8599 -0.19461,0 -0.43762,0.13554 -0.54,0.3012 -0.13332,0.21571 0.0875,0.24986 0.77813,0.1203 1.10089,-0.20652 1.27914,0.001 0.31551,0.36743 -0.68887,0.26191 -1.57901,1.681265 -1.3832,2.205565 0.0642,0.17203 0.25341,-0.0311 0.42035,-0.45151 0.40821,-1.027915 0.69263,-0.677495 0.31931,0.3934 -0.33737,0.96779 -0.35809,2.50431 -0.0442,3.28131 0.20061,0.49667 0.23447,0.48471 0.55135,-0.19472 0.33131,-0.7104 1.5076,-1.68462 1.74609,-1.44614 0.0667,0.0667 -0.24133,0.48374 -0.68442,0.92683 -0.76197,0.76197 -1.12312,1.60295 -0.53129,1.23718 0.17356,-0.10727 0.25111,0.17511 0.21113,0.76878 -0.0348,0.51608 0.0204,1.02191 0.12255,1.12407 0.10216,0.10216 0.18574,0.005 0.18574,-0.2166 0,-0.22128 0.28841,-0.71354 0.64092,-1.0939 0.35251,-0.38036 0.72378,-0.96329 0.82504,-1.2954 0.42586,-1.39663 1.77654,-2.00808 2.50279,-1.13301 0.38799,0.4675 0.17501,0.50915 -0.56857,0.1112 -0.41848,-0.22396 -0.64334,-0.18652 -1.04094,0.1733 -0.7063,0.63919 -0.63253,1.77486 0.17782,2.73791 0.37674,0.44772 0.56396,0.81405 0.41605,0.81405 -0.14791,0 -0.5575,-0.36873 -0.91019,-0.81939 l -0.64127,-0.81938 -0.56853,0.72277 c -0.3127,0.39753 -0.56854,0.95477 -0.56854,1.23831 0,0.28793 -0.14243,0.46806 -0.32263,0.40799 -0.31655,-0.10552 -1.52945,2.15118 -1.52945,2.84564 0,0.50037 2.92133,3.07331 4.27585,3.76592 1.07215,0.54823 1.17037,0.55722 1.48467,0.13593 0.18511,-0.24814 0.26428,-0.63316 0.17593,-0.85562 -0.0883,-0.22246 -0.22512,-0.78838 -0.30394,-1.25761 l -0.14331,-0.85315 2.03214,1.05159 c 1.11767,0.57837 2.2454,1.05158 2.50605,1.05158 0.65259,0 1.21357,-0.6847 1.97897,-2.4154 0.48696,-1.10109 0.85837,-1.55738 1.4759,-1.81317 0.45385,-0.188 0.78782,-0.4148 0.74216,-0.50401 -1.20817,-2.36057 -1.16334,-2.03358 -0.52347,-3.81792 0.66176,-1.84538 0.72791,-2.57938 0.27346,-3.03384 -0.1722,-0.1722 -0.22526,-0.40092 -0.11791,-0.50827 0.61197,-0.61198 0.87149,2.19112 0.31733,3.42751 -0.36765,0.82027 0.35746,0.51 0.90244,-0.38615 0.33088,-0.5441 0.4582,-1.08107 0.3544,-1.49467 -0.11244,-0.44798 -0.0692,-0.58817 0.14116,-0.45814 0.16674,0.10306 0.30317,0.47098 0.30317,0.8176 0,0.34663 0.12209,0.70569 0.27131,0.79791 0.40337,0.2493 0.0117,-4.942705 -0.40659,-5.389395 -0.18444,-0.19699 -0.73548,-0.45269 -1.22452,-0.56823 l -0.88916,-0.21007 0.83058,-0.0271 c 0.45905,-0.015 1.11,0.19913 1.45521,0.47862 0.59122,0.47865 0.62463,0.66919 0.62463,3.562275 0,2.55819 -0.0755,3.13209 -0.46302,3.51974 -0.44102,0.44116 -0.46303,0.4359 -0.46303,-0.11051 v -0.57369 l -0.91145,0.58313 c -1.19564,0.76495 -1.2685,1.00858 -0.65906,2.20395 0.67013,1.31443 0.66313,1.35068 -0.38034,1.96634 -0.59897,0.3534 -1.03937,0.9111 -1.33897,1.69559 -0.94993,2.48735 -1.89036,2.98424 -3.98872,2.10749 -1.2461,-0.52065 -1.68913,-0.19183 -1.05189,0.78073 0.24754,0.3778 1.18136,1.21184 2.07515,1.85344 2.86777,2.05858 3.66716,3.23787 4.02541,5.93848 0.13677,1.03104 0.29051,1.36732 0.62509,1.36732 0.76339,0 3.55598,1.03665 5.71657,2.12207 1.14028,0.57284 2.08812,1.01433 2.10633,0.98109 0.0182,-0.0333 0.36957,-0.83435 0.7808,-1.78024 1.54547,-3.55476 4.76616,-9.81203 5.67958,-11.0345 1.11405,-1.49097 2.56902,-2.28702 5.16915,-2.82817 2.01931,-0.42027 2.52527,-0.8495 2.52527,-2.14227 0,-0.45241 0.13252,-0.95507 0.29448,-1.11704 0.21625,-0.21625 -0.0108,-0.95076 -0.85462,-2.76489 -0.98746,-2.12292 -1.14857,-2.71234 -1.14533,-4.19021 0.005,-2.100155 0.67813,-3.723145 2.13253,-5.138685 1.62585,-1.58241 2.57002,-1.94669 5.08838,-1.9632 4.82598,-0.0317 7.35119,2.15289 7.14408,6.18031 -0.0474,0.922235 0.002,1.764845 0.10942,1.872445 0.31878,0.31879 0.22278,2.09116 -0.13251,2.44645 -0.18049,0.18048 -0.34914,0.9088 -0.37479,1.61848 -0.0256,0.70968 -0.2947,1.85111 -0.59789,2.53652 -0.7252,1.63944 -0.70317,3.29559 0.0439,3.29559 0.15064,0 0.88204,0.51122 1.62534,1.13603 0.74329,0.62482 1.97685,1.58771 2.74125,2.13976 0.7758,0.56028 1.4606,1.28575 1.55004,1.64209 0.18881,0.75228 0.3163,0.77704 1.11619,0.21678 0.33106,-0.23188 1.697,-0.86466 3.03544,-1.40618 2.42815,-0.9824 2.4337,-0.9868 2.51762,-1.99298 l 0.0841,-1.00841 -0.69513,0.54679 c -0.68804,0.54121 -0.70036,0.54155 -1.20859,0.0333 -0.6295,-0.62951 -1.08548,-0.66844 -0.85706,-0.0732 0.12554,0.32714 0.0724,0.38502 -0.20674,0.22522 -0.85733,-0.49076 -1.5688,-1.32654 -1.84712,-2.16986 -0.22711,-0.68813 -0.40742,-0.86206 -0.77331,-0.74593 -0.44354,0.14077 -0.45199,0.0809 -0.12001,-0.84965 0.23332,-0.654 0.36117,-2.30235 0.36876,-4.75419 0.006,-2.0642 0.13733,-4.08826 0.29098,-4.497905 0.7896,-2.10514 2.8347,-3.96203 4.09771,-3.7206 0.3575,0.0683 0.65001,0.0248 0.65001,-0.0968 0,-0.1216 0.37112,-0.41301 0.82472,-0.64758 1.51275,-0.78227 4.86171,0.17558 6.91398,1.9775 1.27244,1.11722 1.98503,2.759815 2.70643,6.238675 0.40238,1.94041 0.90227,3.53126 1.34932,4.2941 l 0.71014,1.21176 -0.81828,-0.16365 c -0.76631,-0.15326 -0.83564,-0.10118 -1.09145,0.8199 -0.15024,0.54096 -0.27383,1.11851 -0.27464,1.28344 -0.002,0.45849 -0.90057,0.59169 -1.27649,0.18927 -0.49064,-0.52523 -0.9825,-0.44919 -0.54332,0.084 0.3303,0.40099 0.27484,0.42664 -0.6134,0.28376 -0.73556,-0.11832 -0.94415,-0.0727 -0.84534,0.18478 0.23953,0.62419 1.5233,0.98982 4.82912,1.3754 5.70416,0.66531 6.63829,1.58749 8.66557,8.55474 0.71174,2.44605 1.68864,7.73027 1.68864,9.13413 0,0.69775 0.12579,0.90264 0.63227,1.02975 0.34775,0.0873 0.70158,0.33929 0.78627,0.56001 0.0847,0.22072 -0.0248,1.84538 -0.24329,3.61036 -0.2185,1.76498 -0.36397,3.23527 -0.32325,3.26731 0.20654,0.1625 3.53505,1.19225 3.85378,1.19225 0.29245,0 0.35082,-0.4273 0.27935,-2.04497 l -0.0903,-2.04497 1.03719,-0.3442 c 0.71154,-0.23612 1.12274,-0.25863 1.30969,-0.0717 0.18694,0.18694 0.055,0.2725 -0.42024,0.2725 -1.91121,0 -1.99289,0.67192 -0.10536,0.86673 2.74633,0.28344 6.01061,-0.31186 3.99955,-0.7294 -0.3638,-0.0755 -0.97316,-0.20266 -1.35414,-0.2825 -1.09193,-0.22884 -0.51973,-0.45654 0.65045,-0.25884 1.90931,0.32257 1.97593,0.46182 1.64423,3.43658 -0.16023,1.43695 -0.35033,2.86051 -0.42245,3.16347 -0.11238,0.47205 0.21539,0.71949 2.29175,1.73008 5.17626,2.51936 9.59329,6.07719 11.34426,9.13757 0.85161,1.48845 0.92734,1.72172 0.55896,1.72172 -0.12975,0 -0.30507,-0.27557 -0.3896,-0.61239 -0.23146,-0.92221 -2.57061,-3.87593 -4.03434,-5.09431 -2.35033,-1.95636 -6.09658,-4.2899 -8.6286,-5.37475 l -1.2499,-0.53552 -0.29052,1.11213 c -0.37593,1.43905 -0.84775,1.77359 -2.50135,1.77359 -0.74474,0 -1.5569,-0.14882 -1.8048,-0.33073 -0.28614,-0.20995 -0.61223,-1.1695 -0.89298,-2.62769 -0.30343,-1.57602 -0.5723,-2.33751 -0.85661,-2.42611 -0.22789,-0.071 -1.21788,-0.36841 -2.19997,-0.66083 l -1.78561,-0.53168 -0.11393,0.57654 c -0.0627,0.3171 -0.30943,2.42201 -0.54834,4.67759 -0.50192,4.73843 -0.56595,5.18792 -0.79089,5.55188 -0.1957,0.31665 -29.71804,0.37695 -30.21375,0.0617 -0.19353,-0.12307 -0.64699,-3.16082 -1.1872,-7.95317 -0.48074,-4.26472 -0.96051,-7.894 -1.06616,-8.06505 -0.1386,-0.22442 -2.51241,-0.33643 -8.52618,-0.40233 -8.10121,-0.0888 -8.35577,-0.0759 -9.10955,0.46085 -1.27661,0.90902 -4.02627,2.11446 -5.23754,2.2961 -0.6238,0.0935 -1.49915,0.0428 -1.94523,-0.11266 -1.37554,-0.47951 -3.60672,0.0848 -4.63153,1.17142 -0.46986,0.4982 -0.98907,0.90582 -1.15378,0.90582 -0.16472,0 -0.29949,0.0945 -0.29949,0.21007 0,0.11554 1.33988,0.53687 2.97751,0.93628 1.63763,0.39941 3.13006,0.82049 3.31653,0.93573 0.2348,0.14512 -0.17218,0.56493 -1.32386,1.36558 -0.91459,0.63582 -2.71898,1.91246 -4.00976,2.83699 l -2.34686,1.68095 -3.73855,-1.69253 c -2.05621,-0.93089 -4.63152,-2.03028 -5.72293,-2.4431 -1.09141,-0.41282 -2.08144,-0.83209 -2.20009,-0.93172 -0.11864,-0.0996 0.29808,-0.39634 0.92605,-0.65936 l 1.14175,-0.47822 -1.19063,-0.26389 c -0.65484,-0.14514 -1.28583,-0.42223 -1.40221,-0.61575 -0.37814,-0.62885 -2.30195,-0.36474 -2.30195,0.31602 0,0.19068 -0.56555,0.5548 -1.25677,0.80917 -1.67293,0.61564 -1.80473,0.75903 -1.43783,1.56428 0.23889,0.52431 0.44221,0.64057 0.91342,0.52231 0.40066,-0.10056 2.6664,0.62593 6.68376,2.14307 3.34269,1.26236 6.17441,2.38344 6.29269,2.49128 0.11828,0.10785 -0.35797,0.27388 -1.05834,0.36896 -2.06438,0.28025 -2.15818,0.54543 -0.42252,1.19452 0.85204,0.31864 1.69758,0.81699 1.87897,1.10744 0.29733,0.47611 0.2378,0.56654 -0.60471,0.91856 -0.51398,0.21475 -0.93451,0.42371 -0.93451,0.46435 0,0.0406 0.60599,0.0688 1.34664,0.0626 l 1.34663,-0.0113 0.92701,2.51354 c 2.4107,6.53655 2.74524,7.48054 2.6739,7.54528 -0.0421,0.0382 -2.39819,0.38529 -5.23584,0.77138 -2.83766,0.3861 -5.35298,0.75972 -5.5896,0.83029 -0.26744,0.0798 -0.47921,-0.059 -0.55971,-0.36687 z m 5.72814,-0.73172 c 2.77758,-0.37559 5.09789,-0.73064 5.15626,-0.789 0.12761,-0.12762 -3.13817,-9.1443 -3.43196,-9.47547 -0.38777,-0.43713 -4.4736,0.36782 -6.29868,1.2409 -0.96323,0.46079 -1.79426,0.86205 -1.84674,0.89168 -0.10193,0.0575 0.68391,7.22111 0.90168,8.21947 0.0714,0.32742 0.20623,0.59531 0.29958,0.59531 0.0933,0 2.44229,-0.3073 5.21986,-0.68289 z m -5.92505,-0.30929 c 0.002,-0.10914 -0.19636,-1.83728 -0.44097,-3.8403 -0.42444,-3.4755 -0.46993,-3.63428 -0.99597,-3.47599 -0.30317,0.0912 -0.62638,0.24178 -0.71825,0.33456 -0.16835,0.17004 -3.66943,6.67615 -3.66943,6.81897 0,0.0422 1.10133,0.11604 2.4474,0.16406 1.34607,0.048 2.65576,0.11202 2.91042,0.14222 0.25466,0.0302 0.46472,-0.0344 0.4668,-0.14352 z m -7.37333,-5.2655 c 2.16602,-1.25891 3.88312,-2.34402 3.81578,-2.41136 -0.12454,-0.12454 -5.60959,2.94426 -7.28942,4.07832 -1.95571,1.32029 -0.29428,0.52299 3.47364,-1.66696 z m -4.02958,1.40814 c -0.61821,-0.48815 -10.18839,-5.7258 -10.3585,-5.66909 -0.12492,0.0416 0.55768,0.53479 1.51687,1.09589 0.9592,0.56111 1.69367,1.07052 1.63217,1.13202 -0.0615,0.0615 -0.81106,-0.3098 -1.66568,-0.82513 -1.45394,-0.87671 -2.39398,-1.24597 -1.80521,-0.70912 0.51911,0.47333 3.90586,2.23523 3.72069,1.93562 -0.34401,-0.55663 0.17877,-0.32945 3.53187,1.53478 1.81337,1.00819 3.35126,1.77885 3.41753,1.71257 0.0663,-0.0663 0.0709,-0.15967 0.0103,-0.20754 z m 2.15088,-1.66264 c 2.26223,-1.4 2.80989,-1.65993 2.52451,-1.19817 -0.10777,0.17438 0.58324,-0.0672 1.5356,-0.5368 0.95235,-0.46963 1.67898,-0.90645 1.61471,-0.97071 -0.0643,-0.0643 -0.74073,0.19192 -1.50327,0.5693 -0.76253,0.37737 -1.43204,0.64052 -1.48779,0.58476 -0.13238,-0.13237 2.01305,-1.22654 2.84064,-1.44873 0.61047,-0.1639 0.58466,-0.20535 -0.52917,-0.84967 -0.64402,-0.37255 -2.67604,-1.46768 -4.51562,-2.43362 -4.50123,-2.36356 -4.93389,-2.3691 -9.55376,-0.1223 -1.85539,0.90234 -3.37088,1.70751 -3.36776,1.78926 0.007,0.18548 9.81359,5.7769 10.19295,5.81176 0.15221,0.014 1.16424,-0.5238 2.24896,-1.19508 z m 6.75597,-1.88912 c -0.12104,-0.12104 -1.74106,0.68215 -1.74106,0.86319 0,0.0667 0.41523,-0.0768 0.92272,-0.31879 0.5075,-0.24201 0.87575,-0.48699 0.81834,-0.5444 z m 4.02027,-1.76684 c 0.91315,-0.41508 1.60766,-0.80732 1.54334,-0.87164 -0.15398,-0.15397 -2.37969,0.83567 -3.13796,1.39527 -0.6856,0.50597 -0.63084,0.48798 1.59462,-0.52363 z m -2.76533,-0.29669 c 1.00065,-2.09839 2.91881,-3.64097 5.96728,-4.79889 0.53303,-0.20246 -0.24884,-0.56794 -5.1293,-2.3976 -5.66901,-2.12528 -5.77095,-2.15218 -6.58202,-1.73701 -1.65655,0.84797 -4.55407,3.97428 -4.32377,4.66518 0.0867,0.26001 8.867,5.12949 9.33792,5.17871 0.15494,0.0162 0.4834,-0.39348 0.72989,-0.91039 z m 3.65331,-1.42289 c 1.16994,-0.44675 2.35511,-0.81228 2.63372,-0.81228 0.92685,0 0.52349,-0.45183 -0.8825,-0.98857 l -1.38907,-0.53026 -1.12251,0.80285 c -0.61738,0.44158 -1.30199,1.08097 -1.52135,1.42088 -0.21937,0.33991 -0.60721,0.94527 -0.86187,1.34524 l -0.46302,0.72722 0.73973,-0.5764 c 0.40685,-0.31701 1.69694,-0.94192 2.86687,-1.38868 z m -1.09306,1.03981 c 0.50933,-0.27885 0.80698,-0.50699 0.66146,-0.50699 -0.14552,0 -0.6813,0.22814 -1.19062,0.50699 -0.50933,0.27884 -0.80698,0.50698 -0.66146,0.50698 0.14552,0 0.6813,-0.22814 1.19062,-0.50698 z m -23.6578,-0.0953 c 0.0759,-0.19793 1.14237,-0.88254 2.36982,-1.52136 l 2.23171,-1.16149 0.003,-2.4033 c 0.002,-1.32181 -0.046,-2.45291 -0.10599,-2.51354 -0.06,-0.0606 -0.9704,-0.07 -2.02307,-0.0209 l -1.91394,0.0894 -3.2686,3.20847 c -1.79772,1.76466 -3.26859,3.28296 -3.26859,3.37401 0,0.18977 4.32431,1.25245 5.23382,1.28618 0.332,0.0123 0.66576,-0.13955 0.74171,-0.33747 z m 26.63915,-0.92114 c 0.9849,-0.26032 1.71869,-0.54536 1.63064,-0.6334 -0.16803,-0.16803 -2.60692,0.48094 -3.28907,0.87519 -0.55675,0.32177 -0.37144,0.29475 1.65843,-0.24179 z m 69.62514,-0.73168 c 0.23019,-0.0883 0.41852,-0.26693 0.41852,-0.39688 0,-0.13589 -6.42142,-0.23627 -15.11365,-0.23627 -13.40436,0 -15.0764,0.0449 -14.78427,0.39687 0.28538,0.34386 2.24835,0.39688 14.69513,0.39688 7.90117,0 14.55409,-0.0723 14.78427,-0.1606 z m -90.06899,-1.69147 c 0.71134,-0.3629 1.56015,-0.52931 2.70144,-0.52964 l 1.66419,-5.3e-4 0.75886,-1.20116 c 0.41738,-0.66063 1.38222,-1.75074 2.1441,-2.42246 1.3059,-1.15135 1.36897,-1.26437 1.10136,-1.97336 -0.34328,-0.90945 -0.39758,-0.91207 -2.70121,-0.1301 -1.00775,0.34208 -2.99314,0.9013 -4.41197,1.2427 l -2.57968,0.62073 v 2.46147 c 0,1.3538 0.0643,2.46146 0.14283,2.46146 0.0786,0 0.60959,-0.23812 1.18008,-0.52916 z m 91.49743,-7.34218 c 0.98632,-8.99997 0.98406,-8.95092 0.42364,-9.16597 -0.23018,-0.0883 -7.71654,-0.1606 -16.63635,-0.1606 -14.02669,0 -16.26193,0.0531 -16.54421,0.39326 -0.26097,0.31445 -0.16088,1.83871 0.49949,7.60677 0.45422,3.96743 0.89463,7.66 0.97869,8.2057 l 0.15283,0.99219 h 15.13164 15.13164 z m -17.24612,1.50215 c -0.83778,-0.659 -0.90638,-1.62364 -0.16797,-2.36205 1.08491,-1.08491 3.175,-0.31377 3.175,1.17142 0,0.70375 -1.10258,1.739 -1.85208,1.739 -0.2518,0 -0.77152,-0.24677 -1.15495,-0.54837 z m 2.41172,-0.45496 c 0.43362,-0.55162 0.41719,-0.87215 -0.0812,-1.58363 -0.51424,-0.73418 -1.53184,-0.761 -2.23396,-0.0589 -0.7105,0.71051 -0.66641,1.17656 0.17387,1.83752 0.76318,0.60032 1.57409,0.52646 2.14124,-0.19501 z m -43.60366,-1.14661 c 0.007,-0.0911 -1.44493,-0.53097 -3.22751,-0.97757 l -3.24106,-0.81201 -1.89765,1.12932 -1.89765,1.12932 -2.86494,-0.50051 c -2.80617,-0.49025 -2.88895,-0.4903 -4.03587,-0.002 l -1.17094,0.49809 3.15531,1.24319 c 1.73543,0.68375 4.22477,1.75421 5.53188,2.3788 l 2.37656,1.13561 3.62915,-2.52813 c 1.99604,-1.39047 3.63526,-2.60263 3.64272,-2.69369 z m 68.31194,4.33655 c 0.32122,-0.32122 1.28703,-5.61923 1.28703,-7.06008 v -1.07966 h -3.07554 -3.07554 l 0.14839,1.76992 c 0.0816,0.97345 0.35291,2.7998 0.6029,4.05855 0.36176,1.82156 0.56766,2.33727 1.00893,2.52694 0.66565,0.28611 2.74664,0.14152 3.10383,-0.21567 z M 405.32504,143.725 c 4.02312,-0.75054 11.69372,-3.21191 11.49366,-3.68813 -0.0612,-0.14565 -0.38283,-1.42569 -0.71476,-2.84452 -0.3412,-1.45848 -0.73872,-2.57968 -0.91462,-2.57968 -0.17112,0 -1.42709,0.34341 -2.79105,0.76314 -1.36397,0.41973 -3.47453,1.03141 -4.69014,1.35929 -1.47351,0.39745 -2.60659,0.89872 -3.39944,1.50391 -0.65408,0.49928 -1.24106,0.85594 -1.30441,0.79259 -0.15852,-0.15852 1.49898,-1.54494 2.48107,-2.0753 0.61516,-0.33221 0.90468,-0.76822 1.2298,-1.85209 0.54736,-1.82474 1.14601,-5.05168 1.46555,-7.89988 l 0.25231,-2.24896 -0.10272,2.77813 c -0.10437,2.82235 -0.57315,5.57393 -1.29595,7.60677 -0.26558,0.7469 -0.30263,1.12448 -0.11035,1.12448 0.15922,0 1.55292,-0.37296 3.09712,-0.8288 1.5442,-0.45584 3.67503,-1.04315 4.73517,-1.30513 1.06425,-0.26299 2.84174,-0.99637 3.96875,-1.63746 1.12267,-0.63862 2.97259,-1.56936 4.11094,-2.06831 1.84494,-0.80865 2.12512,-1.02773 2.57969,-2.01714 0.35386,-0.7702 0.5112,-1.70158 0.51401,-3.04271 0.003,-1.34555 0.082,-1.81217 0.26053,-1.53587 0.14107,0.21828 0.26047,0.87313 0.26533,1.45521 l 0.009,1.05833 0.79578,-1.44381 c 0.43767,-0.79409 0.91746,-1.51901 1.06619,-1.61093 0.34926,-0.21585 -0.0966,-3.09499 -0.64008,-4.13294 -0.45874,-0.87618 -1.68265,-2.06604 -3.32544,-3.23293 l -1.16791,-0.82959 -0.63171,1.12719 c -0.34744,0.61995 -0.8269,1.27601 -1.06547,1.45791 -1.61551,1.23178 -6.06091,-1.25147 -8.88085,-4.96094 l -0.70397,-0.92604 -3.36016,1.69544 c -4.30425,2.1718 -5.31675,3.14082 -6.10893,5.84662 -1.11308,3.80183 -2.21481,11.69638 -2.62439,18.80528 -0.33265,5.77368 0.27074,6.36384 5.5076,5.38687 z m 2.38493,-21.4816 c -0.3074,-1.19228 -0.99891,-2.43735 -2.37372,-4.27391 -0.89737,-1.19875 -0.23784,-1.00271 0.72762,0.21628 1.248,1.57573 2.78847,5.3144 2.18973,5.3144 -0.12079,0 -0.36542,-0.56555 -0.54363,-1.25677 z m 25.10328,12.18198 c 2.1054,-3.74102 3.86041,-6.92595 3.90003,-7.0776 0.0607,-0.23239 -7.65195,-2.26604 -8.57706,-2.26158 -0.16662,8e-4 -0.81886,1.04326 -1.44943,2.31657 -0.63056,1.27331 -1.18216,2.38456 -1.22576,2.46946 -0.0436,0.0849 0.38416,0.2932 0.95058,0.46291 1.21386,0.36368 2.42443,1.25155 2.42443,1.77815 0,0.54885 -1.03542,0.71397 -2.46631,0.39329 -0.88037,-0.19729 -1.41545,-0.19874 -1.77781,-0.005 -0.87928,0.47057 -0.58088,0.65954 0.89597,0.5674 1.19118,-0.0743 1.53315,0.0133 2.16134,0.55362 0.93869,0.80743 0.75488,1.51904 -0.39239,1.51904 -0.71478,0 -0.80205,0.0864 -0.80205,0.79375 0,0.43657 -0.12201,0.79375 -0.27113,0.79375 -0.14913,0 -0.38677,0.30414 -0.5281,0.67587 -0.30104,0.79181 -1.99715,1.62734 -3.807,1.87541 -0.66803,0.0916 -1.21461,0.25228 -1.21461,0.35715 0,0.10486 1.57758,0.45506 3.50573,0.77822 1.92815,0.32316 3.6248,0.6285 3.77032,0.67853 0.89399,0.30735 1.24789,-0.174 4.90325,-6.66913 z m 0.45892,4.35473 c 1.09245,-0.6888 1.88215,-1.42785 2.3151,-2.16664 0.79544,-1.35731 0.82185,-1.86492 0.12793,-2.45907 -0.74698,-0.63959 -0.6571,-1.11687 0.24428,-1.29715 0.63261,-0.12652 0.7651,-0.27919 0.72761,-0.83845 -0.0389,-0.58001 0.12951,-0.74965 1.10984,-1.11796 1.27216,-0.47797 1.86086,-1.18267 1.38527,-1.65826 -0.49639,-0.49639 -0.32474,-0.93049 0.43561,-1.1017 0.5223,-0.11761 0.9667,-0.57147 1.57499,-1.60852 0.46606,-0.79458 0.76372,-1.44351 0.66146,-1.44206 -0.10226,0.001 -1.18557,0.50747 -2.40736,1.12448 -2.08542,1.05316 -2.27303,1.21904 -3.06419,2.70934 -0.46352,0.87313 -2.11302,3.8304 -3.66555,6.57172 -1.55253,2.74131 -2.82279,5.03632 -2.82279,5.10002 0,0.17349 1.51131,-0.63892 3.3778,-1.81575 z m -9.75064,-0.29585 c 2.43565,-0.91582 2.55097,-1.6443 0.15513,-0.97995 -0.94588,0.26229 -1.71979,0.38672 -1.71979,0.27651 0,-0.1102 0.32742,-0.27783 0.72761,-0.3725 2.73704,-0.6475 3.50572,-0.97204 3.50572,-1.48013 0,-0.36663 -0.17701,-0.51985 -0.59531,-0.5153 -0.57214,0.006 -2.43784,0.37861 -3.47272,0.69316 -0.29288,0.089 -0.42968,0.0433 -0.33389,-0.11173 0.20475,-0.33129 4.61749,-1.42985 5.32797,-1.32641 0.89794,0.13074 0.84017,-0.39534 -0.10396,-0.94675 -0.87245,-0.50954 -0.95807,-0.51178 -3.04271,-0.0797 -1.17975,0.2445 -2.25276,0.44399 -2.38446,0.44332 -0.1317,-8e-4 0.51304,-0.48759 1.43275,-1.08203 1.6638,-1.07537 1.68146,-1.07987 3.51268,-0.89597 2.1255,0.21346 2.35099,-0.18087 0.58559,-1.02408 -2.0427,-0.97566 -3.27245,-0.78026 -6.61448,1.05101 -0.43656,0.23922 -1.661,0.90738 -2.72097,1.48481 -1.40655,0.76622 -1.89529,1.16744 -1.80904,1.48505 0.065,0.23935 0.26338,1.09003 0.44083,1.8904 0.52362,2.36163 0.37811,2.27048 3.33522,2.0892 1.43333,-0.0879 3.13155,-0.35735 3.77383,-0.59886 z m 15.41436,-2.41804 c 0.55959,-0.21691 0.84561,-0.93267 0.50773,-1.27055 -0.36601,-0.36602 -2.93467,-0.58043 -2.93467,-0.24497 0,0.3164 0.6249,0.59113 1.34456,0.59113 0.27914,0 0.50753,0.12852 0.50753,0.28561 0,0.18223 -0.29927,0.21987 -0.8268,0.10401 -0.81899,-0.17988 -1.27603,0.1162 -1.28582,0.83299 -0.004,0.2918 1.63431,0.11 2.68747,-0.29822 z m 5.60015,-0.67051 c 1.14067,-0.58736 2.84034,-1.58205 3.77703,-2.21043 1.43142,-0.96027 1.64099,-1.19402 1.31388,-1.4655 -0.65083,-0.54014 -1.06712,-2.9735 -0.73355,-4.2877 0.1587,-0.62519 0.26485,-1.15959 0.2359,-1.18756 -0.0975,-0.0942 -6.92455,3.82936 -7.65941,4.40191 -0.40018,0.3118 -0.7276,0.73052 -0.7276,0.93051 0,0.19998 -0.20836,0.49549 -0.46302,0.65669 -0.33158,0.20988 -0.36914,0.33254 -0.13229,0.43207 0.37636,0.15816 0.44774,1.44844 0.10113,1.8279 -0.12628,0.13825 -0.30189,0.63831 -0.39026,1.11125 l -0.16067,0.8599 1.38245,-5.3e-4 c 1.0953,-5.3e-4 1.81323,-0.22238 3.45641,-1.06848 z m -4.37189,-1.76858 c 0.11061,-0.77423 -0.86389,-1.01887 -2.81081,-0.70562 -1.92333,0.30945 -2.22983,0.96804 -0.40545,0.87121 0.70999,-0.0377 1.52676,0.0698 1.81504,0.23893 0.74392,0.43637 1.3042,0.27461 1.40122,-0.40452 z m 24.39064,-0.70627 c 0,-1.03786 0.30184,-1.21861 2.03496,-1.21861 h 1.19793 l -0.1668,-0.99219 c -0.0917,-0.5457 -0.23794,-3.14577 -0.32489,-5.77793 -0.14835,-4.49088 -0.12396,-4.85767 0.39585,-5.95312 0.30467,-0.64206 0.69929,-1.3665 0.87694,-1.60986 0.54362,-0.74468 -0.075,-1.5573 -2.60112,-3.41698 l -2.36067,-1.73787 -0.42784,1.00184 c -0.91472,2.1419 -3.58325,2.73066 -5.85285,1.29133 -0.68566,-0.43484 -1.38293,-1.08968 -1.54947,-1.45521 -0.16655,-0.36553 -0.373,-0.66469 -0.45878,-0.6648 -0.0858,-1.1e-4 -0.11525,1.11511 -0.0655,2.47826 0.067,1.83436 -0.0357,2.91738 -0.39524,4.16739 -0.28712,0.99833 -0.48542,2.53837 -0.48498,3.76631 l 7.9e-4,2.07737 1.32054,1.18904 c 0.72629,0.65397 2.33257,1.86227 3.5695,2.68512 1.56526,1.04128 2.24896,1.65586 2.24896,2.02163 0,0.74758 -0.76068,0.80139 -2.25303,0.1594 -0.70661,-0.30396 -1.36164,-0.55265 -1.45567,-0.55265 -0.094,0 0.0887,0.42008 0.40598,0.93352 0.46441,0.75144 0.51391,1.00946 0.25376,1.32291 -0.46225,0.55698 -0.90737,0.48347 -1.61967,-0.26748 -0.77243,-0.81433 -0.96033,-0.82678 -1.06771,-0.0707 -0.0749,0.52733 -0.24998,0.60092 -1.53322,0.64438 -0.79678,0.027 -1.58536,-0.0644 -1.75241,-0.203 -0.16704,-0.13864 -0.49892,-0.17716 -0.7375,-0.0856 -0.23858,0.0916 -0.61169,0.0188 -0.82913,-0.16166 -0.32312,-0.26817 -0.5884,-0.20037 -1.45184,0.37102 -0.58107,0.38454 -1.05644,0.72723 -1.05639,0.76154 6e-5,0.0343 3.63146,0.092 8.06979,0.12822 l 8.0697,0.0658 z m -11.0662,-0.29618 c 0.2674,-0.10261 0.33066,-0.66982 0.2582,-2.31511 -0.0531,-1.20543 0.005,-2.08068 0.13049,-1.95873 0.12456,0.12125 0.23173,1.05159 0.23817,2.0674 0.0119,1.87204 0.30719,2.45719 1.08878,2.15726 0.25512,-0.0979 0.35473,-0.72252 0.35473,-2.22447 0,-1.21585 0.11054,-2.08836 0.26458,-2.08836 0.14552,0 0.26458,0.2844 0.26458,0.63201 0,0.50298 0.17556,0.66552 0.8599,0.79616 0.47294,0.0903 1.48703,0.45619 2.25352,0.81314 1.26395,0.5886 2.17825,0.65484 2.17825,0.15781 0,-0.10455 -0.89343,-0.75606 -1.9854,-1.4478 -1.09197,-0.69173 -2.82917,-1.96267 -3.86045,-2.8243 -2.2135,-1.84939 -2.51658,-1.92415 -4.65028,-1.14705 -0.82759,0.30142 -1.17483,0.6067 -1.38906,1.22127 -0.56661,1.62535 -0.21887,4.70917 0.531,4.70917 0.20179,0 0.24187,-0.31292 0.12197,-0.95208 -0.12099,-0.64493 -0.0878,-0.89597 0.10284,-0.77814 0.15481,0.0957 0.28146,0.38729 0.28146,0.64802 0,1.02778 0.57759,2.14054 1.11107,2.14054 0.49501,0 0.52056,-0.12711 0.38554,-1.91823 -0.0925,-1.22707 -0.0658,-1.63223 0.0741,-1.12448 0.1203,0.43656 0.23281,1.18853 0.25003,1.67104 0.0283,0.79311 0.42483,1.90083 0.68043,1.90083 0.0557,0 0.26072,-0.0612 0.45551,-0.1359 z m 4.7162,-0.37492 c 0,-0.41175 -1.16568,-2.09549 -1.5656,-2.26139 -0.20623,-0.0855 -0.49313,-0.0374 -0.63754,0.10702 -0.38837,0.38837 1.01794,2.40061 1.67773,2.40061 0.28897,0 0.52541,-0.11081 0.52541,-0.24624 z m -18.23886,-0.29223 c 0.80766,-0.43225 0.63687,-1.04903 -0.29047,-1.04903 -0.97174,0 -2.63734,0.65986 -2.63734,1.04483 0,0.3591 2.25861,0.36234 2.92781,0.004 z m 30.92039,-1.11343 c -0.13536,-0.47198 -0.24611,-2.38172 -0.24611,-4.24387 0,-2.90163 -0.0783,-3.53921 -0.54763,-4.45916 -0.71861,-1.40859 -0.51197,-1.58637 0.25589,-0.22015 0.53282,0.94802 0.60299,1.47459 0.66071,4.95798 0.0355,2.14352 0.15836,4.10567 0.27299,4.36033 0.19307,0.42896 0.9337,0.46302 10.06828,0.46302 h 9.85989 l -0.48379,-2.07769 c -0.64421,-2.7666 -1.36913,-7.38201 -1.22287,-7.78571 0.0644,-0.17768 0.20469,0.27225 0.31182,0.99986 0.33298,2.26154 1.2154,6.83116 1.52,7.87135 l 0.29055,0.99219 h 2.86854 c 3.34683,0 3.10309,0.3783 2.45147,-3.80489 -1.02828,-6.60116 -2.90048,-11.91114 -4.63516,-13.14634 -0.8286,-0.59002 -3.11805,-1.19062 -5.4291,-1.42423 -1.61496,-0.16325 -1.61838,-0.16211 -1.95473,0.64992 -0.47083,1.13667 -2.2056,2.54205 -3.80691,3.08407 -1.74237,0.58976 -4.75972,0.59214 -5.89253,0.005 -0.46009,-0.23862 -1.08075,-0.74432 -1.37924,-1.12378 l -0.5427,-0.68993 -1.96874,0.94692 c -3.29885,1.58669 -3.86787,2.68317 -3.87027,7.4579 -10e-4,2.5788 0.36154,6.76453 0.66876,7.71499 0.0683,0.21116 0.62932,0.33073 1.55195,0.33073 h 1.44504 l -0.24611,-0.85815 z m 18.55353,-11.67886 c -0.0277,-0.97149 0.6035,-2.53721 1.36862,-3.3948 l 0.77551,-0.86923 -0.5868,0.88626 c -0.32274,0.48744 -0.80197,1.559 -1.06495,2.38125 -0.26298,0.82224 -0.48455,1.27068 -0.49238,0.99652 z m -49.02355,10.94951 c 0.28929,-0.46321 0.26424,-0.52917 -0.20094,-0.52917 -0.29227,0 -0.53141,0.0498 -0.53141,0.11065 0,0.0609 -0.0723,0.29899 -0.16059,0.52917 -0.23576,0.61437 0.49685,0.52359 0.89294,-0.11065 z m 3.91126,-3.81052 c 1.01128,-1.7356 2.04039,-3.64208 2.28693,-4.23662 0.3047,-0.73484 0.45297,-0.9023 0.46302,-0.52296 0.008,0.30692 -0.3409,1.25942 -0.77562,2.11667 -0.54464,1.07401 -0.79144,1.94941 -0.79375,2.81541 -0.002,0.69122 0.0806,1.25677 0.18318,1.25677 0.10259,0 1.20392,-0.63984 2.4474,-1.42187 2.53042,-1.59139 3.96231,-2.14609 4.91962,-1.90582 l 0.64628,0.16221 -0.58077,-1.19539 c -0.54144,-1.11445 -1.00448,-1.54353 -1.00448,-0.9308 0,0.14552 -0.10288,0.26459 -0.22862,0.26459 -0.12574,0 -0.29845,-0.5095 -0.3838,-1.13221 -0.0854,-0.62272 -0.53482,-2.02171 -0.99881,-3.10886 -0.97344,-2.28079 -1.11565,-4.61284 -0.40064,-6.56988 l 0.42149,-1.15365 -0.99075,0.17417 c -4.83532,0.85004 -5.6107,1.72566 -10.17352,11.48864 -1.42279,3.04432 -1.47981,3.23831 -0.82582,2.8098 2.08533,-1.36636 2.35215,-1.46253 3.21921,-1.16027 0.45994,0.16034 0.83626,0.37991 0.83626,0.48795 0,0.10804 -0.35503,0.84053 -0.78895,1.62776 -0.90582,1.64334 -0.94644,1.82821 -0.40167,1.82821 0.56124,0 0.49224,0.86574 -0.1323,1.6597 -0.74809,0.95104 -0.66009,1.04871 0.34413,0.38193 0.57659,-0.38284 1.49798,-1.65196 2.71198,-3.73548 z m 3.06673,-7.96344 c -0.0333,-0.7276 -0.16211,-1.79917 -0.28634,-2.38125 -0.51903,-2.43186 -0.58166,-2.91293 -0.32724,-2.51354 0.46596,0.73145 0.88493,3.29298 0.77897,4.7625 l -0.10492,1.45521 z m -6.01262,10.54547 c 0.0917,-0.23911 0.11666,-0.48492 0.0553,-0.54623 -0.17525,-0.17525 -2.01764,0.22393 -2.01764,0.43715 0,0.67105 1.71017,0.76611 1.9623,0.10908 z m 2.96741,-0.38059 c 0.73058,-0.45152 0.89112,-0.71369 0.89112,-1.45521 0,-0.99342 -0.25088,-1.15645 -0.6793,-0.44144 -0.15259,0.25466 -0.54813,0.90951 -0.87898,1.45521 -0.68939,1.13709 -0.57785,1.2109 0.66716,0.44144 z m -3.2534,-3.46819 c 0.26712,-0.1415 0.42779,-0.31516 0.35704,-0.38591 -0.13461,-0.13461 -2.8271,1.15406 -2.8271,1.35309 0,0.1182 1.61439,-0.51394 2.47006,-0.96718 z m -7.78377,0.47894 c -0.21601,-0.19674 -4.27889,-1.48709 -4.68236,-1.48709 -0.7753,0 -0.0334,0.37625 1.87159,0.94911 1.7556,0.52795 3.07755,0.78097 2.81077,0.53798 z m 0.81579,-0.27144 c 0,-0.19899 -4.57299,-1.76389 -4.86756,-1.66569 -0.1605,0.0535 0.77975,0.4649 2.08944,0.91423 2.4725,0.84826 2.77812,0.93093 2.77812,0.75146 z m -13.15914,-7.58542 c 0.34325,-0.15639 0.90241,-0.79384 1.24258,-1.41655 0.7049,-1.29039 0.55916,-1.96779 -0.2947,-1.36972 -0.57694,0.4041 -1.37267,0.2757 -2.75315,-0.44426 -1.17348,-0.612 -4.11612,-3.37614 -4.45684,-4.18649 l -0.29989,-0.71323 -0.82851,0.74028 c -1.33229,1.19039 -1.3203,1.58897 0.0986,3.27653 1.357,1.61398 3.5434,3.26023 5.23754,3.94362 1.29313,0.52162 1.28395,0.52086 2.0544,0.16982 z m 60.35266,-1.04833 c 1.34135,-0.50187 3.60649,-2.46813 3.60649,-3.13064 0,-0.13299 -0.32743,-0.32231 -0.72761,-0.4207 -1.12966,-0.27775 -1.892,-0.87625 -2.25771,-1.7725 l -0.33476,-0.82041 -0.76995,1.11105 c -1.22063,1.76136 -2.66472,2.27467 -4.1782,1.48515 -0.71507,-0.37301 -0.72761,-0.3661 -0.72761,0.40065 0,0.66327 -0.15862,0.84367 -1.05833,1.20367 -0.58208,0.2329 -1.05651,0.49983 -1.05428,0.59317 0.009,0.36326 0.43056,0.78745 1.31886,1.32605 1.26304,0.76579 4.17102,0.77732 6.1831,0.0245 z m -19.09012,-2.61422 c 0.81177,-0.90853 0.9511,-1.89535 0.33931,-2.40309 -0.21828,-0.18116 -0.39687,-0.61246 -0.39687,-0.95844 0,-0.34599 -0.0476,-0.62906 -0.10583,-0.62906 -0.0582,0 -0.53768,0.43184 -1.06548,0.95964 -0.86897,0.86896 -1.06617,0.94764 -2.08686,0.8326 -0.61996,-0.0699 -1.60938,-0.43144 -2.1987,-0.80347 -2.06507,-1.30361 -2.17418,0.26469 -0.16252,2.33602 1.24747,1.28448 2.30713,1.73557 3.75872,1.60007 0.90982,-0.0849 1.35158,-0.30009 1.91823,-0.93427 z m 12.30287,-3.44157 c -0.37031,-0.44009 -0.81182,-1.21991 -0.98113,-1.73293 -0.16931,-0.51302 -0.41767,-0.93276 -0.5519,-0.93276 -0.41759,0 -0.26809,1.42849 0.25736,2.45913 0.27578,0.54093 0.39991,1.04625 0.27585,1.12293 -0.38297,0.23668 -1.09814,-1.48745 -1.19252,-2.87494 -0.0493,-0.72481 -0.21417,-1.44236 -0.36637,-1.59456 -0.36254,-0.36255 -0.35555,-1.41386 0.0109,-1.64035 0.19892,-0.12294 0.20287,-0.26254 0.0128,-0.45261 -0.19007,-0.19007 -0.0162,-0.41357 0.56375,-0.72458 1.34057,-0.71896 1.86604,-1.64271 1.99172,-3.50136 0.1358,-2.008305 0.58368,-2.701395 0.58368,-0.903225 0,1.555095 0.55977,2.682975 1.66649,3.357775 1.26973,0.7742 1.66944,0.65381 0.89299,-0.26896 -0.66723,-0.79294 -1.1623,-2.28546 -0.85878,-2.58898 0.09,-0.09 0.34664,0.0978 0.57041,0.41731 0.22376,0.31947 0.75361,0.76018 1.17743,0.97934 0.68712,0.35533 0.75396,0.35516 0.61709,-0.002 -0.19737,-0.51433 0.26908,-0.51857 0.69422,-0.006 0.61638,0.7427 2.21958,1.56332 2.94601,1.50797 0.76807,-0.0585 1.55456,0.73129 1.55456,1.56113 0,0.53044 -0.9856,1.82889 -1.38824,1.82889 -0.16033,0 -0.0235,-0.28526 0.30402,-0.6339 0.39139,-0.41662 0.56591,-0.88328 0.50914,-1.36143 -0.0726,-0.61134 -0.27653,-0.78113 -1.277,-1.06318 -1.95627,-0.55148 -4.28432,-1.41692 -4.66791,-1.73527 -0.48594,-0.4033 -0.45244,-0.0924 0.0772,0.71581 0.26218,0.40015 0.65817,0.64873 0.99218,0.62286 1.04974,-0.0813 1.74649,0.0158 1.74649,0.24342 0,0.12534 -0.32742,0.17112 -0.7276,0.10174 -0.70534,-0.12229 -0.71141,-0.11333 -0.19844,0.29286 0.50948,0.40342 0.49471,0.41927 -0.39687,0.42595 -1.59616,0.012 -2.8452,-0.48689 -3.64325,-1.45506 l -0.75616,-0.91736 -0.43369,0.90945 c -0.23852,0.50019 -0.78373,1.16825 -1.21156,1.48456 l -0.77788,0.57511 0.85092,2.38791 c 0.92793,2.60404 1.84778,3.8092 3.58311,4.69449 1.48871,0.75949 1.90336,0.67972 3.38326,-0.65084 1.27889,-1.14983 1.57145,-1.64237 2.12574,-3.57879 l 0.26507,-0.92604 0.0154,0.79375 c 0.008,0.43656 -0.14083,1.23118 -0.33177,1.76582 -0.36353,1.01786 -0.32409,1.17554 0.44496,1.7793 0.43752,0.34349 0.45167,0.31809 0.19655,-0.35293 -0.41912,-1.10237 -0.0427,-1.34149 0.81623,-0.51855 0.80467,0.77092 0.96047,0.70002 0.4711,-0.21437 -0.45375,-0.84776 -0.75264,-2.06231 -0.50753,-2.06231 0.12112,0 0.34475,0.35719 0.49693,0.79375 0.15219,0.43656 0.33869,0.79375 0.41446,0.79375 0.0758,0 0.0692,-0.17859 -0.0146,-0.39688 -0.0838,-0.21828 -0.0205,-0.39687 0.14059,-0.39687 0.26283,0 0.41882,0.56183 0.31767,1.14415 -0.0208,0.11995 0.0841,0.14269 0.23325,0.0505 0.34876,-0.21555 0.35399,-1.906 0.007,-2.12072 -0.14552,-0.0899 -0.26458,-0.36162 -0.26458,-0.60375 0,-0.31716 0.21772,-0.20184 0.77883,0.41249 0.73578,0.80558 1.44486,1.23108 0.86986,0.52199 -0.43034,-0.5307 -1.06221,-2.61688 -1.62083,-5.35138 -0.29589,-1.44844 -0.81434,-3.044835 -1.20573,-3.712695 -1.16438,-1.98686 -4.05831,-3.56978 -6.52639,-3.56978 -0.75614,0 -1.17231,0.17982 -1.67774,0.7249 -0.36969,0.3987 -0.67217,0.57729 -0.67217,0.39688 0,-1.11348 -2.85103,0.80857 -3.71884,2.50708 -0.60157,1.177435 -0.64707,1.547665 -0.65094,5.296285 -0.002,2.21669 0.0832,3.79427 0.18991,3.50573 0.35009,-0.94639 0.45822,-0.55205 0.30958,1.12902 -0.11027,1.24718 -0.0473,1.78371 0.25623,2.18281 0.37537,0.49357 0.39243,0.45352 0.25362,-0.59531 -0.099,-0.74816 -0.0486,-1.12448 0.1506,-1.12448 0.16469,0 0.29943,0.24728 0.29943,0.54952 0,0.30223 0.38695,0.92731 0.85989,1.38906 l 0.8599,0.83954 0.0837,-0.7276 c 0.11671,-1.01438 0.57388,-0.91285 0.59564,0.13229 0.0166,0.79969 0.0376,0.81913 0.29916,0.27772 0.23233,-0.48093 0.16415,-0.72134 -0.39205,-1.38234 z m 2.10515,-0.33338 -0.83954,-0.8427 1.78346,-0.33078 c 0.98091,-0.18194 1.90364,-0.40506 2.05052,-0.49584 0.56438,-0.34881 0.2377,1.24251 -0.38237,1.86258 -0.87194,0.87193 -1.60488,0.8177 -2.61207,-0.19326 z m 2.34749,-0.0713 c 0.7055,-0.7055 0.86861,-1.34337 0.28638,-1.11995 -0.19967,0.0766 -0.93622,0.22527 -1.63676,0.33032 l -1.27372,0.19101 0.72548,0.62403 c 0.90793,0.78097 1.09474,0.77847 1.89862,-0.0254 z m -1.81663,-2.1694 c -0.0952,-0.0952 -0.10217,-0.61598 -0.0156,-1.1574 0.0959,-0.59984 0.0429,-1.05515 -0.13568,-1.16552 -0.16121,-0.0996 -0.2931,-0.30776 -0.2931,-0.4625 0,-0.17233 0.16035,-0.14829 0.41376,0.062 0.26508,0.21999 0.38903,0.68588 0.34493,1.29654 -0.0379,0.52423 0.0211,1.09866 0.13103,1.27651 0.20758,0.33587 -0.14187,0.45384 -0.44536,0.15035 z m -2.4091,-1.59103 c -0.22529,-0.58709 0.27222,-1.09265 0.67696,-0.68792 0.32392,0.32392 0.1363,1.12904 -0.26311,1.12904 -0.13451,0 -0.32075,-0.19851 -0.41385,-0.44112 z m 4.52238,-0.52902 c -0.33284,-0.33284 -0.17636,-1.14653 0.22049,-1.14653 0.24694,0 0.39687,0.24988 0.39687,0.66146 0,0.64237 -0.25763,0.8448 -0.61736,0.48507 z m 3.4321,-1.01424 c 0.0838,-0.21828 0.25488,-0.39687 0.38026,-0.39687 0.12539,0 0.15945,0.17859 0.0757,0.39687 -0.0838,0.21828 -0.25488,0.39688 -0.38026,0.39688 -0.12539,0 -0.15944,-0.1786 -0.0757,-0.39688 z m -8.67241,-0.64652 c 0.69153,-0.60238 1.03365,-0.66126 1.62434,-0.27952 0.30803,0.19907 0.23011,0.25739 -0.34812,0.26053 -0.40975,0.002 -1.00507,0.12984 -1.32292,0.28358 -0.54366,0.26295 -0.54089,0.24726 0.0467,-0.26459 z m 7.01721,-2.37337 c -1.02631,-0.46606 -2.09718,-1.55462 -1.81095,-1.840845 0.0716,-0.0716 0.51534,0.240405 0.9861,0.693335 0.47077,0.45293 1.21312,0.90785 1.64969,1.01093 l 0.79375,0.18743 -0.72761,-0.5852 c -0.40018,-0.32186 -0.7276,-0.70427 -0.7276,-0.84979 0,-0.14552 0.30325,-0.026 0.67388,0.26549 0.37064,0.29154 1.02548,0.6073 1.45521,0.70169 0.85844,0.18854 1.0129,0.51325 0.36281,0.76271 -0.71391,0.27396 -1.5225,0.16867 -2.65528,-0.34575 z m -19.6134,7.84854 c 1.55007,-1.64873 1.88083,-2.84895 1.69245,-6.14136 -0.19107,-3.33951 -0.38319,-3.741245 -2.44217,-5.106785 l -1.30163,-0.86324 -0.17397,1.36269 c -0.19431,1.521935 -0.77443,2.457035 -2.07229,3.340355 -0.89645,0.61012 -1.75028,0.80381 -1.4579,0.33073 0.0899,-0.14552 0.0304,-0.26458 -0.13229,-0.26458 -0.1627,0 -0.22223,-0.11906 -0.1323,-0.26458 0.0899,-0.14552 0.37551,-0.26459 0.63461,-0.26459 0.42831,0 1.08519,-0.97186 1.08519,-1.60557 0,-0.14176 -0.82108,0.57647 -1.82462,1.59606 -1.00354,1.01959 -2.13464,1.97168 -2.51354,2.11574 -1.14108,0.43383 -0.79642,2.17453 0.49472,2.49859 0.36764,0.0923 0.66844,0.29159 0.66844,0.44292 0,0.15134 0.10658,0.20929 0.23686,0.12877 0.40032,-0.24741 0.55986,0.6129 0.24273,1.30892 -0.32335,0.70967 0.0445,1.98124 0.57307,1.98124 0.34877,0 0.35374,-1.50467 0.006,-1.71979 -0.14552,-0.0899 -0.26082,-0.30533 -0.25622,-0.47864 0.005,-0.17331 0.27634,-0.0175 0.60387,0.34635 0.89806,0.9975 1.40205,1.3488 2.49411,1.73849 1.71529,0.61208 2.66747,0.48379 3.57521,-0.48172 z m -3.33858,-1.01139 c -0.93233,-0.73337 -0.90461,-1.30372 0.0633,-1.30372 0.41827,0 1.26668,-0.17859 1.88535,-0.39687 1.42243,-0.50186 1.32292,-0.53172 1.32292,0.39687 0,1.66025 -1.87067,2.4057 -3.27161,1.30372 z m 2.26828,-0.0469 c 0.2314,-0.1819 0.50602,-0.61663 0.61027,-0.96606 0.1573,-0.52727 0.1129,-0.60593 -0.261,-0.46245 -0.24779,0.0951 -0.91901,0.2478 -1.4916,0.33936 -1.2892,0.20615 -1.47514,0.4692 -0.71031,1.00491 0.71518,0.50093 1.28935,0.52704 1.85264,0.0842 z m -1.00342,-2.77378 c 0.10165,-0.32026 0.01,-0.65531 -0.23624,-0.85928 -0.24378,-0.20232 -0.38613,-0.7133 -0.3605,-1.29412 0.0418,-0.94856 0.0436,-0.94996 0.14758,-0.1196 0.0579,0.4621 0.27696,0.9827 0.48683,1.15687 0.45226,0.37535 0.50259,1.20421 0.0886,1.46004 -0.19402,0.11991 -0.23667,0.004 -0.12632,-0.34391 z m -6.49367,-0.77526 c -0.32927,-0.39915 -0.30762,-0.41062 0.23219,-0.12299 0.61567,0.32806 0.76727,0.56318 0.36312,0.56318 -0.1277,0 -0.39559,-0.19809 -0.59531,-0.44019 z m 3.38514,-0.26537 c -0.097,-0.097 -0.17639,-0.39466 -0.17639,-0.66145 0,-0.59531 0.67626,-0.64372 0.8986,-0.0643 0.25719,0.67024 -0.259,1.18898 -0.72221,0.72577 z m 4.49792,-1.05833 c -0.33284,-0.33284 -0.17637,-1.14653 0.22048,-1.14653 0.24695,0 0.39688,0.24989 0.39688,0.66146 0,0.64238 -0.25763,0.8448 -0.61736,0.48507 z m -5.99722,-1.14653 c 0,-0.14552 0.12608,-0.26458 0.28019,-0.26458 0.15411,0 0.20662,0.11906 0.11668,0.26458 -0.0899,0.14552 -0.21603,0.26459 -0.2802,0.26459 -0.0642,0 -0.11667,-0.11907 -0.11667,-0.26459 z m 5.14379,-1.69819 c 0.57084,-0.46512 1.61835,-0.55729 1.86154,-0.1638 0.088,0.14243 -0.16747,0.23962 -0.5797,0.22052 -0.4054,-0.0188 -0.97522,0.0549 -1.26626,0.16379 -0.52157,0.19512 -0.52179,0.19196 -0.0156,-0.22051 z m -6.06984,7.78361 c 0.0899,-0.14552 -0.009,-0.26458 -0.22066,-0.26458 -0.2113,0 -0.45271,-0.1786 -0.53648,-0.39688 -0.0838,-0.21828 -0.40288,-0.39687 -0.70916,-0.39687 -0.78473,0 -0.5676,0.85147 0.27707,1.0865 0.9527,0.26509 1.00881,0.26376 1.18923,-0.0282 z m 18.88347,-2.27841 c -0.25006,-0.60938 -0.33643,-0.66787 -0.42613,-0.28857 -0.0619,0.26165 0.0334,0.65149 0.21165,0.86629 0.47351,0.57055 0.57429,0.29911 0.21448,-0.57772 z m -8.74247,-3.95281 c -0.14216,-1.21064 -0.64333,-1.05249 -0.52709,0.16633 0.0664,0.69616 0.19463,0.99239 0.35863,0.82839 0.14041,-0.1404 0.21622,-0.58803 0.16846,-0.99472 z m -0.83648,-4.208175 c 0,-0.21188 -0.10116,-0.32272 -0.2248,-0.2463 -0.12364,0.0764 -0.15631,0.24977 -0.0726,0.38523 0.21394,0.34618 0.29738,0.3072 0.29738,-0.13893 z m -17.63889,59.508585 c -3.41974,-0.48415 -6.24748,-0.8881 -6.28386,-0.89765 -0.22417,-0.0589 0.084,-0.71183 1.25677,-2.66321 0.72761,-1.21062 1.32292,-2.28105 1.32292,-2.37875 0,-0.0977 -1.90859,-0.57212 -4.24132,-1.05429 -2.33273,-0.48218 -4.29052,-0.95628 -4.35065,-1.05357 -0.0601,-0.0973 1.10433,-1.19211 2.58768,-2.43294 1.48335,-1.24084 3.90729,-3.28108 5.38654,-4.53387 l 2.68954,-2.27781 3.39587,0.2045 3.39588,0.2045 0.56658,-0.68599 0.56658,-0.686 4.92168,0.28971 c 2.70693,0.15935 4.96893,0.34016 5.02667,0.40181 0.0577,0.0616 -0.23908,1.00311 -0.65961,2.09215 -0.42054,1.08904 -0.7641,2.27966 -0.76348,2.64583 5.3e-4,0.36617 0.2977,2.32329 0.66019,4.34915 0.36248,2.02587 0.60264,3.73982 0.53368,3.80877 -0.069,0.069 -1.68835,0.2703 -3.59865,0.44742 -2.10611,0.19528 -3.55102,0.44783 -3.67078,0.64161 -0.10863,0.17577 -0.41314,1.2637 -0.67669,2.41763 -0.45036,1.97186 -0.52035,2.09635 -1.16351,2.06968 -0.37638,-0.0156 -3.48229,-0.42452 -6.90203,-0.90868 z m 7.80536,-1.44486 c 0.26597,-1.16453 0.41293,-2.18798 0.32658,-2.27434 -0.0864,-0.0864 -1.42897,-0.0201 -2.98359,0.14732 -1.55462,0.16738 -2.85966,0.2681 -2.9001,0.22382 -0.0404,-0.0443 0.0432,-0.84078 0.18577,-1.77001 0.20586,-1.34142 0.18625,-1.7358 -0.0952,-1.91418 -0.72863,-0.46183 -1.56887,-0.2241 -2.34919,0.66464 -0.74712,0.85092 -0.84352,0.88491 -1.86095,0.65631 -0.59016,-0.1326 -1.17316,-0.17919 -1.29557,-0.10354 -0.42251,0.26112 -2.71778,4.39503 -2.53933,4.57347 0.13127,0.13129 9.64832,1.53696 12.74052,1.88179 0.1581,0.0176 0.50507,-0.92074 0.77104,-2.08528 z m 1.05818,-2.77522 c 2.61938,-0.22496 5.24498,-0.47009 5.83468,-0.54473 l 1.07218,-0.1357 -0.6081,-3.49419 c -0.33446,-1.9218 -0.64638,-3.60902 -0.69317,-3.74938 -0.0872,-0.26173 -2.2983,5.24244 -2.2983,5.72136 0,0.16218 -0.48959,0.2057 -1.25677,0.1117 -2.51898,-0.30863 -7.77423,-0.74245 -7.86724,-0.64943 -0.0525,0.0525 -0.17965,0.83904 -0.28246,1.74778 l -0.18693,1.65227 0.76181,-0.12533 c 0.41899,-0.0689 2.90492,-0.30938 5.5243,-0.53435 z m -9.16158,-2.34788 0.58796,-0.62585 -0.81802,-0.16361 c -1.01425,-0.20284 -1.12261,0.0126 2.48257,-4.93469 1.53765,-2.11005 2.79849,-3.91223 2.80188,-4.00485 0.009,-0.2407 -1.90913,-0.47641 -4.28535,-0.52668 -1.98146,-0.0419 -2.0764,-0.0149 -3.175,0.90216 -6.08143,5.07673 -8.81829,7.41773 -8.8863,7.601 -0.0445,0.11993 0.61034,0.35975 1.45521,0.53292 0.84487,0.17318 3.08394,0.64932 4.97571,1.0581 4.26712,0.92205 4.15048,0.91818 4.86134,0.1615 z m 12.0679,-0.16127 c 0.39405,-0.63759 4.07621,-10.4425 3.96381,-10.5549 -0.0693,-0.0693 -2.17278,-0.24293 -4.67439,-0.38584 l -4.54838,-0.25983 -0.67576,0.86667 c -0.37167,0.47666 -2.01028,2.72741 -3.64136,5.00166 l -2.96559,4.13499 0.71663,0.20146 c 0.39415,0.1108 3.09789,0.42188 6.0083,0.69127 2.91042,0.26939 5.37394,0.50615 5.47449,0.52614 0.10055,0.02 0.25457,-0.0797 0.34225,-0.22162 z m 48.38858,5.63166 c -0.30988,-0.0608 -1.79817,-1.4778 -3.30729,-3.14895 -2.07454,-2.29729 -2.75438,-3.22966 -2.78699,-3.82224 -0.0237,-0.43107 0.008,-0.78376 0.0695,-0.78376 0.062,0 2.91594,-0.41672 6.34219,-0.92605 3.42625,-0.50932 6.49059,-0.92506 6.80964,-0.92386 0.3303,0.001 2.11252,1.19069 4.13875,2.76222 2.76209,2.14225 3.55865,2.89816 3.55865,3.37705 0,0.74963 -0.32383,1.32691 -0.63608,1.13393 -0.126,-0.0779 -0.75625,-0.0234 -1.40057,0.12095 -1.01468,0.2274 -1.8118,0.36764 -3.63009,0.63867 -0.22084,0.0329 -0.54826,0.15053 -0.7276,0.26137 -0.17935,0.11084 -0.41689,0.14541 -0.52788,0.0768 -0.11099,-0.0686 -1.56799,0.15207 -3.23778,0.49036 -1.6698,0.3383 -3.11858,0.56405 -3.21951,0.50167 -0.10093,-0.0624 -0.2583,0.008 -0.3497,0.15548 -0.0914,0.14789 -0.24846,0.25268 -0.34901,0.23287 -0.10056,-0.0198 -0.43637,-0.0858 -0.74626,-0.14652 z m 0.69573,-0.87579 c 0,-0.14552 -0.26865,-0.26458 -0.597,-0.26458 -0.42395,0 -1.31798,-0.80599 -3.08433,-2.7806 -1.36803,-1.52934 -2.55072,-2.71722 -2.62819,-2.63974 -0.13266,0.13265 0.3758,0.70725 3.91844,4.42815 1.31181,1.37782 2.39108,1.94509 2.39108,1.25677 z m 1.19062,-0.26458 c -0.0899,-0.14552 -0.33509,-0.26458 -0.54478,-0.26458 -0.20969,0 -0.38126,0.11906 -0.38126,0.26458 0,0.14552 0.24515,0.26458 0.54478,0.26458 0.29963,0 0.4712,-0.11906 0.38126,-0.26458 z m 1.19063,-0.31494 c 0,-0.34776 -0.60134,-0.13 -0.73318,0.26551 -0.0645,0.19334 0.0565,0.25248 0.31419,0.15359 0.23044,-0.0884 0.41899,-0.27702 0.41899,-0.4191 z m 1.16781,0.0873 c 0.0774,-0.12522 0.0728,-0.29561 -0.0103,-0.37864 -0.20646,-0.20648 -0.89297,0.078 -0.89297,0.37004 0,0.30232 0.71748,0.30915 0.90323,0.009 z m 0.19814,-0.93635 c 0.10174,0.0629 0.24849,0.0116 0.32612,-0.11404 0.0776,-0.1256 0.50524,-0.23872 0.95025,-0.25137 0.44501,-0.0127 1.43153,-0.15203 2.19225,-0.30972 0.76072,-0.1577 1.79985,-0.35157 2.30918,-0.43083 0.50932,-0.0793 1.22369,-0.20155 1.5875,-0.27174 0.62195,-0.12001 1.38157,-0.25047 1.98437,-0.3408 0.14552,-0.0218 0.006,-0.24537 -0.31003,-0.49679 -0.31603,-0.25143 -1.81283,-1.4332 -3.32622,-2.62616 l -2.75162,-2.16903 -6.33106,0.91944 c -3.48209,0.5057 -6.41044,0.94598 -6.50746,0.9784 -0.097,0.0324 1.02645,1.37823 2.49658,2.99066 l 2.67297,2.93171 2.26109,-0.46203 c 1.2436,-0.25411 2.34433,-0.41058 2.44608,-0.3477 z m 1.14759,0.63486 c 0.0899,-0.14552 -0.0816,-0.26458 -0.38126,-0.26458 -0.29963,0 -0.54478,0.11906 -0.54478,0.26458 0,0.14552 0.17156,0.26459 0.38126,0.26459 0.20969,0 0.45484,-0.11907 0.54478,-0.26459 z m 1.19062,-0.26458 c 0,-0.14552 -0.17859,-0.26458 -0.39687,-0.26458 -0.21828,0 -0.39688,0.11906 -0.39688,0.26458 0,0.14552 0.1786,0.26458 0.39688,0.26458 0.21828,0 0.39687,-0.11906 0.39687,-0.26458 z m 1.32292,-0.26458 c 0,-0.14552 -0.17157,-0.26459 -0.38126,-0.26459 -0.20969,0 -0.45484,0.11907 -0.54478,0.26459 -0.0899,0.14552 0.0816,0.26458 0.38126,0.26458 0.29963,0 0.54478,-0.11906 0.54478,-0.26458 z m 0.9044,0.10398 c 0.59119,-0.22686 0.52018,-0.63315 -0.11065,-0.63315 -0.29398,0 -0.52917,0.17639 -0.52917,0.39687 0,0.44531 0.0485,0.46321 0.63982,0.23628 z m 1.41622,-0.58354 c 0.0576,-0.17281 -0.0838,-0.31419 -0.3142,-0.31419 -0.2304,0 -0.41892,0.18851 -0.41892,0.41892 0,0.46724 0.56958,0.38587 0.73312,-0.10473 z m 1.38355,-0.21021 c 0,-0.27901 -0.14388,-0.36997 -0.41852,-0.26458 -0.23018,0.0883 -0.47533,0.1606 -0.54478,0.1606 -0.0695,0 -0.0527,0.11906 0.0372,0.26458 0.26056,0.42158 0.92605,0.30617 0.92605,-0.1606 z m 1.32291,-0.10398 c 0,-0.14552 -0.23812,-0.26459 -0.52916,-0.26459 -0.29105,0 -0.52917,0.11907 -0.52917,0.26459 0,0.14552 0.23812,0.26458 0.52917,0.26458 0.29104,0 0.52916,-0.11906 0.52916,-0.26458 z m 1.05834,-0.26459 c 0,-0.14552 -0.1786,-0.26458 -0.39688,-0.26458 -0.21828,0 -0.39687,0.11906 -0.39687,0.26458 0,0.14552 0.17859,0.26459 0.39687,0.26459 0.21828,0 0.39688,-0.11907 0.39688,-0.26459 z m -94.75767,-43.1184 c -0.34355,-0.2862 -0.48283,-0.52432 -0.30951,-0.52916 0.17331,-0.005 0.38753,0.10837 0.47604,0.25159 0.0885,0.14321 0.54203,0.3706 1.00781,0.5053 0.80314,0.23227 0.81081,0.24614 0.14857,0.26877 -0.38406,0.0131 -0.97937,-0.2103 -1.32291,-0.4965 z m 1.77138,-3.95367 c -0.18633,-0.3015 0.0985,-1.08221 0.39481,-1.08221 0.35452,0 0.53133,0.44716 0.35673,0.90216 -0.17913,0.46683 -0.52334,0.54929 -0.75154,0.18005 z m -6.97756,-1.47797 c -0.16604,-0.36442 -0.19341,-0.66258 -0.0608,-0.66258 0.26031,0 0.66304,1.02481 0.47617,1.21169 -0.0624,0.0624 -0.24932,-0.18469 -0.41536,-0.54911 z M 427.91,104.2036 c -0.29105,-0.11515 -0.678,-0.15358 -0.8599,-0.0854 -0.1819,0.0682 -0.33073,-0.008 -0.33073,-0.1689 0,-0.43412 1.2065,-0.35509 1.5875,0.10398 0.36654,0.44165 0.3527,0.44689 -0.39687,0.15031 z m -6.15157,-0.19324 c -0.69601,-0.28085 -0.28872,-0.57844 0.59532,-0.43498 1.14412,0.18566 1.18444,-0.0363 0.1077,-0.59314 -1.00948,-0.52202 -0.86348,-0.78411 0.49031,-0.88025 0.25615,-0.0182 0.78557,-0.32965 1.17649,-0.69213 0.39093,-0.36249 0.77299,-0.55839 0.84904,-0.43534 0.16099,0.26048 -0.7968,1.17972 -1.56521,1.50221 -0.46848,0.19662 -0.43885,0.23416 0.25837,0.32737 0.81174,0.10852 1.25629,-0.25618 2.69292,-2.2092 0.54167,-0.736365 0.59356,-0.752205 1.04258,-0.31822 0.2599,0.2512 0.38386,0.5454 0.27547,0.6538 -0.10839,0.10839 -0.31184,0.0219 -0.45211,-0.19214 -0.2202,-0.33606 -0.29124,-0.32788 -0.52011,0.0599 -0.6277,1.06336 -1.67764,2.0753 -2.80975,2.70805 -1.21771,0.68059 -1.52459,0.75285 -2.14102,0.50412 z m -2.30638,-2.00759 c 0.0684,-0.1819 -0.2491,-0.54281 -0.7056,-0.80201 -0.99519,-0.56508 -0.80823,-0.86546 0.47013,-0.75532 1.0007,0.0862 2.31601,-0.33163 3.07264,-0.976115 0.25556,-0.21767 0.55143,-0.30898 0.65751,-0.20291 0.49055,0.49056 -2.23803,1.731295 -3.33151,1.514895 -0.20999,-0.0416 -0.2799,0.0545 -0.16958,0.23302 0.10628,0.17195 0.46215,0.23483 0.8203,0.14494 0.7923,-0.19885 0.80465,0.0199 0.0373,0.66 -0.69455,0.57941 -1.02706,0.6511 -0.85118,0.1835 z m 10.64076,-0.0849 c -0.10914,-0.11097 -0.19844,-0.53911 -0.19844,-0.95142 0,-0.84729 -0.38843,-0.95108 -1.26404,-0.33778 -0.32342,0.22653 -0.58804,0.29282 -0.58804,0.1473 0,-0.32534 1.05495,-1.088335 1.50477,-1.088335 0.18078,0 0.45929,0.24401 0.6189,0.542245 0.31425,0.58718 0.25221,2.01882 -0.0731,1.68799 z m -13.94966,-2.000675 c -0.009,-0.55797 2.03949,-2.61122 2.6037,-2.6095 0.30584,0.001 0.21164,0.17757 -0.32276,0.6052 -0.41506,0.33214 -1.09646,1.01616 -1.51423,1.52004 -0.51184,0.617335 -0.76191,0.775285 -0.76671,0.48426 z m 11.45402,-0.81221 c -0.19795,-0.43445 -0.72839,-0.83971 -1.45458,-1.11132 l -1.14301,-0.4275 1.04252,0.12622 c 1.17937,0.1428 2.0971,0.89974 1.95918,1.61592 -0.0768,0.39895 -0.14542,0.36444 -0.40411,-0.20332 z m -1.40697,-2.92746 c -1.31808,-0.66328 -2.40605,-1.01896 -3.24024,-1.05933 -0.69072,-0.0334 -1.25627,-0.16673 -1.25677,-0.29622 -0.003,-0.74244 4.67354,0.59036 6.21639,1.7717 0.99137,0.75908 0.26831,0.58407 -1.71938,-0.41615 z"
       id="path398" /></g></svg>
