<?xml version="1.0" encoding="UTF-8" standalone="no"?>
<!-- Created with Inkscape (http://www.inkscape.org/) -->

<svg
   width="80.437164mm"
   height="117.98882mm"
   viewBox="0 0 80.437164 117.98882"
   version="1.1"
   id="svg5"
   xml:space="preserve"
   xmlns="http://www.w3.org/2000/svg"
   xmlns:svg="http://www.w3.org/2000/svg"><defs
     id="defs2" /><g
     id="layer1"
     transform="translate(-266.74686,-26.599794)"><g
       id="g179"
       transform="translate(200.05498,-18.796966)"><path
         style="fill:#fcfdfd;stroke-width:0.264583"
         d="m 101.72966,163.3235 c -5.199002,-0.93881 -6.929713,-1.41548 -10.4892,-2.88893 -10.349773,-4.28431 -18.693094,-13.17567 -22.425483,-23.89855 -1.597282,-4.58888 -2.132124,-7.93126 -2.12298,-13.2671 0.0088,-5.1162 0.357807,-7.53316 1.737916,-12.03446 1.990693,-6.49275 6.202375,-13.143345 11.140895,-17.59239 l 1.256771,-1.132208 5.29e-4,3.539427 c 5.29e-4,3.404796 0.511231,9.630851 1.038998,12.667551 2.393907,13.77423 8.0919,25.24252 17.582367,35.38786 2.521547,2.69548 10.084727,9.06214 10.765297,9.06214 0.26254,0 0.44346,-0.96688 0.6436,-3.43958 0.39065,-4.82645 1.79345,-14.5316 2.79176,-19.31459 3.48957,-16.71877 8.11765,-28.98252 14.51526,-38.463375 0.87021,-1.289587 1.4879,-1.966762 1.68938,-1.852052 0.17468,0.09946 0.82704,0.58986 1.44969,1.08979 l 1.13209,0.90896 -0.88115,1.232818 c -2.12426,2.97203 -5.32413,8.671139 -7.04294,12.543759 -0.30679,0.69122 -0.78971,1.77238 -1.07315,2.40257 -1.86832,4.15384 -4.44673,12.10342 -6.09833,18.80199 -1.14,4.62361 -1.6121,6.96922 -2.90797,14.44804 -0.13868,0.80037 -0.37268,2.46724 -0.52,3.70417 -0.14732,1.23693 -0.389,3.17655 -0.53706,4.31029 -0.32898,2.51907 -0.3431,3.70411 -0.0419,3.51796 0.22762,-0.14067 1.70261,-3.37543 4.53471,-9.94492 0.4705,-1.0914 1.13934,-2.61298 1.48631,-3.38128 0.34697,-0.76829 0.63085,-1.44992 0.63085,-1.51472 0,-0.0648 0.33811,-0.86495 0.75134,-1.7781 0.41324,-0.91315 1.02978,-2.28535 1.37008,-3.04933 0.34031,-0.76399 0.69347,-1.38907 0.78481,-1.38907 0.0913,0 0.32458,1.10133 0.5183,2.4474 0.6235,4.33209 1.94342,9.17853 3.73297,13.70651 1.01675,2.57263 2.01999,4.66514 2.32876,4.85721 0.0941,0.0585 0.0889,-1.04341 -0.0115,-2.44872 -0.1004,-1.40531 -0.26219,-6.00792 -0.35952,-10.22802 -0.1402,-6.079 -0.0872,-8.68973 0.25495,-12.56771 0.85536,-9.69363 2.2679,-17.0222 4.74389,-24.61229 0.99407,-3.04729 2.25915,-6.351707 2.56417,-6.697649 0.23476,-0.266264 2.64351,2.679565 4.29158,5.248479 2.55885,3.9886 4.4638,8.71093 5.53423,13.71924 0.84558,3.95629 0.85332,11.57336 0.0158,15.56061 -3.07865,14.65696 -13.11648,25.99492 -27.15232,30.66918 -3.83731,1.27792 -6.16489,1.61795 -11.67064,1.70493 -2.91042,0.046 -5.58932,0.0299 -5.95312,-0.0358 z m -2.686632,-59.5676 c -2.350291,-2.41483 -4.144814,-4.892651 -6.004859,-8.291319 -1.172403,-2.142207 -3.05322,-6.576618 -3.336542,-7.866576 -0.167192,-0.761217 -0.124121,-0.799692 1.761139,-1.57326 1.062886,-0.436126 2.370381,-0.932553 2.905543,-1.103167 l 0.973021,-0.310208 1.937395,1.959356 c 4.145005,4.191989 9.212915,5.137602 14.391045,2.685203 1.86909,-0.885219 3.95156,-2.67381 4.81501,-4.135516 0.24213,-0.409882 0.61447,-0.745239 0.82743,-0.745239 0.58502,0 3.99662,1.137698 3.99662,1.332791 0,0.09366 -0.92439,0.944078 -2.05421,1.889813 -4.54882,3.807684 -10.23918,9.692827 -15.62333,16.158122 -1.06038,1.27331 -2.01956,2.31511 -2.1315,2.31511 -0.11194,0 -1.21749,-1.0418 -2.456762,-2.31511 z"
         id="path195" /><path
         style="fill:#02bc61;stroke-width:0.264583"
         d="M 106.62089,150.17371 C 92.3869,138.75326 83.969353,123.52814 81.579461,104.88038 c -0.51199,-3.99495 -0.428871,-16.099304 0.138988,-20.240623 0.860381,-6.274609 2.904866,-15.213541 3.479597,-15.213541 0.136906,0 0.397925,1.071562 0.580043,2.38125 1.569059,11.283762 4.554877,20.294631 8.968352,27.065498 1.53376,2.352996 4.653788,5.975316 6.094149,7.075256 l 0.83072,0.63438 1.90828,-2.30632 c 6.33663,-7.658357 12.06691,-13.455478 18.12612,-18.337538 7.09215,-5.714338 14.73333,-9.360595 20.30677,-9.690092 1.45801,-0.0862 2.57631,-0.04949 2.57193,0.08441 -0.004,0.1303 -0.97797,0.772419 -2.16379,1.42693 -5.81491,3.209538 -11.76992,9.30476 -16.15728,16.537707 -7.58607,12.506313 -13.45798,32.723153 -15.40768,53.048313 -0.24429,2.54661 -0.52394,4.84493 -0.62146,5.10737 -0.1498,0.40318 -0.71007,0.0497 -3.61331,-2.27967 z m 21.58583,-0.0496 c -2.26684,-5.38865 -3.93319,-11.17153 -4.4982,-15.61042 -0.1667,-1.30968 -0.36761,-2.79005 -0.44645,-3.28971 -0.12712,-0.80556 -0.65845,0.27879 -4.69138,9.57416 -2.50141,5.76544 -4.65157,10.57956 -4.77813,10.69804 -0.31826,0.29795 0.007,-3.78509 0.65783,-8.25124 2.85834,-19.62255 8.65469,-36.71077 16.39315,-48.328702 3.68476,-5.532011 8.22299,-10.395592 12.74896,-13.66294 3.23746,-2.337149 3.61263,-2.263857 1.48024,0.289177 -3.49793,4.187957 -7.73502,11.856325 -10.10108,18.281123 -4.99516,13.563862 -7.07121,29.916992 -5.96666,46.999582 0.15831,2.44836 0.2438,4.66892 0.18998,4.93458 -0.0594,0.29345 -0.4473,-0.34769 -0.98826,-1.63365 z M 102.40418,89.636882 c -5.605258,-1.927469 -9.093279,-7.625818 -8.124819,-13.273442 0.696415,-4.061182 3.089616,-7.251417 6.824449,-9.097272 2.02294,-0.999791 2.09927,-1.014952 5.11005,-1.014952 2.98386,0 3.10556,0.02347 5.12594,0.988166 7.38027,3.52398 9.29732,12.90707 3.89172,19.048158 -3.02731,3.439213 -8.44908,4.854887 -12.82734,3.349342 z m 15.73059,-22.88441 c -5.01027,-2.056725 -10.66499,-3.078094 -17.26198,-3.117906 -4.038461,-0.02437 -4.677745,-0.08376 -4.581688,-0.425627 0.0614,-0.218519 0.314931,-1.706994 0.563404,-3.307723 0.248475,-1.600729 0.537218,-3.00668 0.641651,-3.124335 0.213408,-0.240421 9.884093,-0.273817 11.355043,-0.03921 0.65549,0.104545 0.82572,0.07334 0.55138,-0.101081 -0.81092,-0.515554 -5.78868,-1.174054 -9.1282,-1.207556 l -3.43966,-0.03451 -4.240152,-2.304367 c -4.470715,-2.429674 -5.36667,-2.985781 -5.15199,-3.197781 0.07253,-0.07162 5.626629,-1.11244 12.34244,-2.312921 l 12.210562,-2.182696 11.00663,6.059818 c 6.05364,3.332901 11.00657,6.120151 11.00651,6.193893 -7e-5,0.07374 -2.58968,0.586864 -5.75469,1.140269 -3.16502,0.553408 -5.82844,1.089189 -5.91872,1.190625 -0.13185,0.148149 -1.29106,6.932904 -1.29106,7.556468 0,0.316159 -0.66032,0.137917 -2.90948,-0.785362 z"
         id="path189" /></g></g></svg>
